<svg xmlns="http://www.w3.org/2000/svg" xmlns:xlink="http://www.w3.org/1999/xlink" viewBox="0 0 148.968 48.223">
  <defs>
    <style>
      .cls-1 {
        fill: none;
      }

      .cls-2 {
        fill: #26b11d;
      }

      .cls-3 {
        clip-path: url(#clip-path);
      }

      .cls-4 {
        fill: #79cd00;
      }
    </style>
    <clipPath id="clip-path">
      <path id="Tracé_11" data-name="Tracé 11" class="cls-1" d="M0-184.657H148.968v48.223H0Z" transform="translate(0 184.657)"/>
    </clipPath>
  </defs>
  <g id="Mobile-logo-FH" transform="translate(0 184.657)">
    <g id="Groupe_1" data-name="Groupe 1" transform="translate(14.911 -170.246)">
      <path id="Tracé_1" data-name="Tracé 1" class="cls-2" d="M-12.467-11.605v4.157h7.76V-3.54h-7.76V3.693h-4.406v-19.4H-3.6v4.1Z" transform="translate(16.873 15.707)"/>
    </g>
    <g id="Groupe_10" data-name="Groupe 10" class="cls-3" transform="translate(0 -184.657)">
      <g id="Groupe_2" data-name="Groupe 2" transform="translate(28.74 19.678)">
        <path id="Tracé_2" data-name="Tracé 2" class="cls-2" d="M-30.267-20.386a3.23,3.23,0,0,0-3.215-3.464,3.273,3.273,0,0,0-3.27,3.464,3.257,3.257,0,0,0,3.27,3.464,3.2,3.2,0,0,0,3.215-3.464m-10.7,0a7.152,7.152,0,0,1,7.483-7.206,7.084,7.084,0,0,1,7.428,7.178,7.113,7.113,0,0,1-7.428,7.233,7.169,7.169,0,0,1-7.483-7.206" transform="translate(40.965 27.592)"/>
      </g>
      <g id="Groupe_3" data-name="Groupe 3" transform="translate(44.76 19.678)">
        <path id="Tracé_3" data-name="Tracé 3" class="cls-2" d="M-30.266-20.386a3.23,3.23,0,0,0-3.215-3.464,3.273,3.273,0,0,0-3.27,3.464,3.257,3.257,0,0,0,3.27,3.464,3.2,3.2,0,0,0,3.215-3.464m-10.7,0a7.152,7.152,0,0,1,7.483-7.206,7.084,7.084,0,0,1,7.428,7.178,7.113,7.113,0,0,1-7.428,7.233,7.169,7.169,0,0,1-7.483-7.206" transform="translate(40.964 27.592)"/>
      </g>
      <g id="Groupe_4" data-name="Groupe 4" transform="translate(60.779 14.412)">
        <path id="Tracé_4" data-name="Tracé 4" class="cls-2" d="M-28.228-35.206c0-2-1.164-3.409-2.91-3.409-1.718,0-2.91,1.414-2.91,3.409s1.219,3.436,2.91,3.436c1.746,0,2.91-1.441,2.91-3.436M-24.1-47.65v19.4h-3.27l-.416-1.386h-.388A4.478,4.478,0,0,1-31.858-28c-3.409,0-6.347-2.688-6.347-7.15,0-4.545,3.049-7.261,6.568-7.261a4.392,4.392,0,0,1,3.409,1.358v-6.6Z" transform="translate(38.205 47.65)"/>
      </g>
      <g id="Groupe_5" data-name="Groupe 5" transform="translate(77.104 14.412)">
        <path id="Tracé_5" data-name="Tracé 5" class="cls-4" d="M-44.694,0V19.4H-49.1V11.529h-6.957V19.4h-4.434V0h4.434V7.594H-49.1V0Z" transform="translate(60.491)"/>
      </g>
      <g id="Groupe_6" data-name="Groupe 6" transform="translate(94.01 19.678)">
        <path id="Tracé_6" data-name="Tracé 6" class="cls-4" d="M-12-15.368H-6.26a2.608,2.608,0,0,0-2.8-2.134A2.907,2.907,0,0,0-12-15.368m9.476,4.129a6.269,6.269,0,0,1-6.455,4.85,6.852,6.852,0,0,1-7.261-7.206A6.9,6.9,0,0,1-9.281-20.8c3.714,0,7.428,2.189,6.9,8.425h-9.756A2.9,2.9,0,0,0-8.948-9.8,2.565,2.565,0,0,0-6.4-11.239Z" transform="translate(16.237 20.8)"/>
      </g>
      <g id="Groupe_7" data-name="Groupe 7" transform="translate(119.16 19.678)">
        <path id="Tracé_7" data-name="Tracé 7" class="cls-4" d="M-30.266-20.386a3.23,3.23,0,0,0-3.215-3.464,3.273,3.273,0,0,0-3.27,3.464,3.257,3.257,0,0,0,3.27,3.464,3.2,3.2,0,0,0,3.215-3.464m-10.7,0a7.152,7.152,0,0,1,7.483-7.206,7.084,7.084,0,0,1,7.428,7.178,7.113,7.113,0,0,1-7.428,7.233,7.169,7.169,0,0,1-7.483-7.206" transform="translate(40.964 27.592)"/>
      </g>
      <path id="Tracé_8" data-name="Tracé 8" class="cls-4" d="M417.4-108.247h4.434v13.857H417.4Z" transform="translate(-308.393 128.202)"/>
      <g id="Groupe_8" data-name="Groupe 8" transform="translate(8.132 19.677)">
        <path id="Tracé_9" data-name="Tracé 9" class="cls-2" d="M-19.178-13.425a5,5,0,0,1-4.428-.678,5,5,0,0,1-2.351-3.812,5,5,0,0,1,4.428.678,5,5,0,0,1,2.351,3.813" transform="translate(25.957 18.17)"/>
      </g>
      <g id="Groupe_9" data-name="Groupe 9" transform="translate(113.438 19.677)">
        <path id="Tracé_10" data-name="Tracé 10" class="cls-4" d="M0-13.425A5,5,0,0,0,4.428-14.1a5,5,0,0,0,2.351-3.812,5,5,0,0,0-4.428.678A5,5,0,0,0,0-13.425" transform="translate(0 18.17)"/>
      </g>
    </g>
  </g>
</svg>
